<?xml version="1.0" encoding="UTF-8" standalone="no"?>
<!-- Created with Inkscape (http://www.inkscape.org/) -->

<svg
   version="1.1"
   id="svg1"
   width="645.92261"
   height="975.39734"
   viewBox="0 0 645.92261 975.39738"
   sodipodi:docname="137a.svg"
   inkscape:version="1.3.2 (091e20ef0f, 2023-11-25)"
   xmlns:inkscape="http://www.inkscape.org/namespaces/inkscape"
   xmlns:sodipodi="http://sodipodi.sourceforge.net/DTD/sodipodi-0.dtd"
   xmlns="http://www.w3.org/2000/svg"
   xmlns:svg="http://www.w3.org/2000/svg">
  <defs
     id="defs1" />
  <sodipodi:namedview
     id="namedview1"
     pagecolor="#ffffff"
     bordercolor="#000000"
     borderopacity="0.25"
     inkscape:showpageshadow="2"
     inkscape:pageopacity="0.0"
     inkscape:pagecheckerboard="0"
     inkscape:deskcolor="#d1d1d1"
     showgrid="false"
     inkscape:zoom="0.75000006"
     inkscape:cx="301.33331"
     inkscape:cy="497.99996"
     inkscape:window-width="1920"
     inkscape:window-height="1011"
     inkscape:window-x="0"
     inkscape:window-y="0"
     inkscape:window-maximized="1"
     inkscape:current-layer="layer1" />
  <g
     inkscape:groupmode="layer"
     id="layer1"
     inkscape:label="Layer 1"
     transform="translate(-58.638573,-38.735638)">
    <path
       style="fill:#000000"
       d="m 59.140206,1012.6441 c -1.492076,-3.8883 0.612628,-70.02918 2.799578,-87.9775 6.882175,-56.4821 19.189809,-111.45164 30.145788,-134.64001 6.765825,-14.31989 23.276478,-34.88195 38.382788,-47.8012 11.326,-9.68625 31.98284,-22.95398 50.05915,-32.15262 14.76645,-7.51432 20.06725,-9.54763 36.34768,-13.94242 6.33162,-1.70918 8.94335,-6.49192 7.5701,-13.86274 -2.83663,-15.22542 -14.50866,-21.08125 -51.10397,-25.63874 -30.01304,-3.73776 -52.38017,-10.92962 -58.60549,-18.84383 -3.35857,-4.26973 -3.67253,-16.65099 -0.75528,-29.78509 5.42129,-24.40789 5.4689,-25.43625 1.54585,-33.39071 -1.97363,-4.00177 -5.67446,-10.54941 -8.22407,-14.5503 -5.42511,-8.51316 -5.86405,-13.88829 -1.85579,-22.72538 3.86756,-8.52687 3.82697,-14.95905 -0.12803,-20.29179 -4.60576,-6.21019 -4.1102,-11.77216 2.23117,-25.04181 9.04354,-18.92405 9.08177,-18.75177 -4.68724,-21.12303 -4.65899,-0.80236 -10.350684,-2.5567 -12.648208,-3.89852 -5.458649,-3.18803 -11.055791,-11.40829 -13.094715,-19.2316 -1.505452,-5.77639 -1.317007,-7.19975 2.47161,-18.66854 2.255725,-6.82846 9.348979,-24.11454 15.762786,-38.4135 15.456027,-34.45774 21.547697,-50.93403 23.972557,-64.83921 2.28073,-13.07869 2.58062,-45.90217 0.57096,-62.49225 -0.71067,-5.86666 -1.66051,-17.71257 -2.11076,-26.32424 -0.7536,-14.41365 -0.51537,-16.8238 2.99859,-30.33698 3.72265,-14.31573 3.75929,-14.78667 1.47876,-19.00909 -1.28615,-2.38132 -8.31679,-9.3846 -15.62364,-15.56284 -7.306849,-6.17823 -12.977493,-11.54084 -12.601431,-11.9169 0.376062,-0.37606 9.521141,-2.91185 20.322401,-5.63508 28.0299,-7.06695 41.86086,-12.76789 43.90602,-18.09747 1.24459,-3.24337 -4.59686,-7.86511 -26.45572,-20.93166 -24.06647,-14.38621 -26.47832,-15.935548 -26.47832,-17.009372 0,-0.479968 7.05,-2.777101 15.66667,-5.104739 41.70967,-11.267121 56.33333,-16.264112 56.33333,-19.249428 0,-2.220903 -5.44879,-7.737742 -17.44273,-17.660574 -12.62935,-10.448513 -14.67214,-13.438621 -11.05942,-16.188122 4.1903,-3.189073 29.88673,-1.295386 49.16697,3.623336 10.38598,2.649645 22.54707,4.605632 34.66666,5.575777 24.39882,1.953069 68.61769,0.6831 96.66852,-2.776327 36.88123,-4.548454 74.49223,-3.571369 101.53047,2.637631 6.34176,1.456307 19.40119,3.469375 29.02096,4.473484 14.98864,1.564512 18.21294,2.326315 22.5412,5.3258 3.90612,2.706949 6.65896,3.500146 12.14743,3.500146 13.72,0 38.60244,16.066687 53.49773,34.543693 5.28303,6.553385 9.55649,7.441085 17.08358,3.548675 5.22809,-2.703546 12.52781,-2.664777 17.91151,0.0951 7.8923,4.04592 15.60046,9.92519 15.60046,11.89899 0,1.0771 -2.7,4.54543 -6,7.70738 -4.9962,4.7872 -6,6.57516 -6,10.68706 0,6.50943 3.27961,14.18573 6.06069,14.18573 1.20823,0 4.92332,-2.4 8.25576,-5.33333 6.7574,-5.9481 7.80802,-6.23141 12.06115,-3.25239 6.59813,4.6215 10.40239,17.77759 12.28178,42.47342 0.72357,9.50799 1.91001,17.88169 2.63654,18.60822 0.72653,0.72654 5.07096,1.76313 9.65428,2.30355 9.8592,1.16249 12.60514,3.65313 17.05388,15.46834 5.39175,14.31969 7.00107,25.14608 6.1749,41.54053 -0.83216,16.51326 0.17382,20.93121 6.46984,28.4136 5.09039,6.04959 5.38798,9.39128 1.54794,17.38193 -4.58827,9.54762 -6.58758,21.37389 -6.73779,39.85507 -0.13819,17.00321 0.58648,19.0168 7.32926,20.36536 10.48958,2.09791 27.85771,27.06854 29.95623,43.06887 2.73109,20.82334 -15.22963,58.56948 -37.44136,78.68656 -5.43998,4.92697 -10.19011,9.73793 -10.55584,10.69101 -0.36573,0.95309 1.94287,4.66917 5.13023,8.25797 9.07032,10.21268 10.80121,16.26202 10.72165,37.47126 -0.06,15.99622 -0.55579,19.83493 -4.45361,34.48315 -5.15051,19.35584 -4.9495,21.80992 2.75957,33.69063 18.34732,28.27568 17.39,45.80728 -4.24702,77.77653 -8.90813,13.16199 -13.23858,22.3055 -15.35513,32.42153 -1.00361,4.79676 -2.74792,9.64454 -3.87623,10.77285 -3.22773,3.22774 -8.77508,0.44776 -13.67043,-6.85074 -13.19298,-19.66948 -14.5338,-43.69224 -3.6387,-65.19268 1.76866,-3.49028 3.21574,-7.78135 3.21574,-9.53572 0,-3.4428 -4.584,-12.84351 -12.45336,-25.53892 -7.917,-12.77226 -8.32672,-15.89826 -4.78656,-36.51924 3.6516,-21.27003 2.90754,-28.62395 -4.47257,-44.20491 l -4.72201,-9.96914 -0.11608,10.81801 c -0.15876,14.79484 -2.14636,24.12062 -6.47022,30.35813 -3.45988,4.99114 -3.64587,6.04756 -3.64587,20.70832 0,12.37016 0.49906,16.49078 2.50425,20.6772 2.10658,4.39811 2.78938,11.27921 4.29991,43.33333 1.40537,29.82292 2.36207,40.06113 4.40164,47.10499 3.11732,10.76597 2.66849,10.99175 -9.57715,4.81752 -18.19385,-9.1733 -33.39679,-22.40215 -39.74255,-34.58201 -4.18659,-8.03562 -5.12165,-29.06928 -1.77386,-39.90217 3.84208,-12.43238 3.10989,-17.33624 -4.4398,-29.73559 -9.82869,-16.1423 -12.40923,-21.75741 -13.18459,-28.68893 -0.74831,-6.68971 0.8494,-10.67281 10.13091,-25.25627 2.45525,-3.85778 4.11566,-7.36256 3.68981,-7.78841 -3.10976,-3.10976 -17.61063,10.35037 -25.27084,23.45712 -8.23604,14.092 -9.70439,23.47494 -9.70439,62.01208 0,35.27568 0.94166,43.75226 6.80401,61.24765 4.71149,14.06083 5.26963,14.39455 26.14805,15.63417 20.94523,1.24358 34.96705,4.52784 49.98891,11.70862 21.39248,10.22607 40.06585,25.9308 52.40788,44.07622 9.23084,13.57131 41.65699,80.91243 52.89927,109.85877 4.12019,10.60855 4.39217,12.07236 2.57984,13.88468 -4.55497,4.55498 -23.84264,3.47885 -67.49463,-3.76575 -39.42093,-6.54241 -50.00427,-7.24712 -109.33333,-7.2802 -81.27902,-0.0453 -107.20647,2.6736 -164.66667,17.26796 -46.0056,11.68499 -50.30777,13.17369 -90.66667,31.37374 -35.29014,15.91427 -64.29211,27.99412 -67.20982,27.99412 -4.15285,0 -70.53907,28.85647 -113.456843,49.317 -29.019167,13.8344 -30.37712,14.3223 -31.526461,11.3272 z m 51.471704,-33.48919 c 30.77403,-12.34187 48.64382,-20.92316 57.00754,-27.37572 6.81477,-5.25756 18.17114,-18.68304 43.1378,-50.99745 16.43652,-21.27385 36.70439,-44.01942 60.1015,-67.44879 20.52087,-20.54917 28.83978,-31.38751 27.25705,-35.51202 -1.12297,-2.92642 -6.80576,-1.6941 -19.15163,4.15305 -19.20762,9.09696 -47.95171,31.15997 -90.25439,69.2763 -24.39896,21.9844 -71.0351,68.43278 -85.09223,84.74965 -17.067101,19.8107 -23.671786,32 -17.338974,32 1.253217,0 12.203217,-3.98026 24.333334,-8.84502 z M 79.094212,964.99993 c 2.479563,-5.31667 15.768101,-33.96667 29.530088,-63.66667 46.02713,-99.33203 43.65042,-95.51642 88.04237,-141.34425 30.93708,-31.93776 34.66775,-38.49332 27.87896,-48.98906 -3.58114,-5.5366 -9.90085,-4.10389 -33.33236,7.55661 -29.68785,14.77392 -43.80338,24.40795 -60.5466,41.32381 -14.78788,14.94036 -19.91646,22.41229 -27.63126,40.25649 -9.868369,22.8254 -23.587546,88.55789 -28.3162,135.67101 -1.411271,14.06095 -1.896002,38.85872 -0.759585,38.85872 0.34446,0 2.655024,-4.35 5.134587,-9.66666 z M 239.05095,927.61846 c 18.74598,-8.00224 36.94827,-18.15296 45.75043,-25.51328 6.56729,-5.49153 18.80737,-23.41787 40.12938,-58.77191 24.35772,-40.38756 26.55346,-48.04129 16.73496,-58.33333 -1.92388,-2.01667 -4.34405,-3.66667 -5.37815,-3.66667 -5.7759,0 -72.34973,73.08721 -98.57444,108.21866 -16.19718,21.69826 -28.3798,41.83238 -28.3798,46.9031 0,1.8641 0.6755,1.86723 6.85622,0.0317 3.77092,-1.11984 14.05855,-5.11059 22.8614,-8.86832 z M 174,865.33116 c 9.53333,-9.0091 21.04126,-19.36811 25.57317,-23.02003 9.84635,-7.93443 12.17512,-12.66715 17.696,-35.9633 5.49753,-23.19761 11.00303,-53.0487 10.17963,-55.19444 -2.10337,-5.48129 -9.97579,1.05068 -26.85568,22.28293 -6.74965,8.49001 -15.58527,19.14952 -19.63471,23.68781 -16.61273,18.61823 -31.51613,43.99785 -52.97252,90.20914 -21.72523,46.79029 -22.27907,44.79202 4.94892,17.8557 13.05252,-12.9127 31.53186,-30.84871 41.06519,-39.85781 z m 172,23.17938 c 4.4,-1.12929 17.6,-5.25289 29.33333,-9.16356 25.49193,-8.49634 39.84255,-10.62308 85.33334,-12.64625 35.40426,-1.57457 117.59633,-4.03413 134.81037,-4.03413 7.67866,0 11.27088,-0.45208 10.41254,-1.31042 -1.79521,-1.7952 -45.21497,-21.33659 -67.14874,-30.22078 -9.8592,-3.99344 -35.01913,-13.00658 -55.91096,-20.0292 -42.97725,-14.44647 -42.84833,-14.43104 -63.49655,-7.60168 -8.57078,2.83476 -13.7245,3.60724 -26.22906,3.9314 -12.87631,0.3338 -16.55398,0.9093 -21.30735,3.33429 -8.27565,4.22192 -20.89187,17.42799 -30.21775,31.63051 -7.58208,11.54688 -26.9125,47.93272 -26.9125,50.65768 0,1.3907 18.86211,-1.34702 31.33333,-4.54786 z m 338.97841,-17.44396 c 1.84897,-5.5534 -52.02634,-49.88314 -74.14773,-61.0103 -33.51399,-16.85769 -105.65583,-33.87758 -145.98627,-34.44146 -11.37062,-0.15898 -11.96776,-0.019 -15.00973,3.51746 -3.96816,4.61326 -4.01916,7.02169 -0.16801,7.93462 1.65,0.39114 8.1,2.605 14.33333,4.91969 6.23333,2.31468 12.6514,4.40827 14.26237,4.6524 1.61097,0.24414 5.21097,1.60609 8,3.02656 4.3222,2.20132 25.87933,9.39573 34.4043,11.48198 4.46993,1.09389 22.18793,7.63581 29.80911,11.00626 3.95415,1.74872 8.54124,3.17948 10.19353,3.17948 1.6523,0 3.68615,0.82174 4.51968,1.82608 0.83354,1.00435 4.357,2.8873 7.82993,4.18434 3.47293,1.29705 17.41441,8.22959 30.98108,15.40566 33.00405,17.45743 41.80763,20.74321 66,24.63333 12.18337,1.95908 14.23532,1.91577 14.97841,-0.3161 z M 242.18775,811.40215 c 17.99165,-12.76783 29.19,-19.89291 43.14558,-27.45186 32.36807,-17.53196 40.18836,-23.02522 60.67892,-42.62307 20.11668,-19.24026 32.82472,-25.32727 52.87649,-25.32727 8.40673,0 13.16099,0.92324 24.758,4.8078 11.52179,3.85937 15.61514,4.65936 20.74998,4.05531 6.73248,-0.79199 55.42942,-15.17275 57.44096,-16.96297 1.75912,-1.56557 1.19868,-11.9252 -1.31185,-24.24944 -1.72173,-8.45202 -2.42443,-21.80361 -3.04834,-57.91996 -0.90454,-52.36105 -1.22194,-54.14019 -8.15828,-45.73073 -3.20043,3.88013 -4.25398,4.4229 -6.25087,3.22039 -3.5659,-2.14737 -6.94372,-13.37078 -7.00998,-23.29193 -0.0893,-13.3762 3.71283,-19.6425 24.96761,-41.14878 18.59489,-18.81491 22.61208,-23.58607 21.11738,-25.08077 -1.16207,-1.16207 -12.72859,4.57187 -30.49328,15.11661 -7.89247,4.6848 -14.5709,8.51781 -14.84097,8.51781 -0.27006,0 -0.74022,-5.69762 -1.04479,-12.66139 -0.64278,-14.69677 -1.92085,-16.98222 -7.18236,-12.84351 -3.93033,3.0916 -6.6226,3.59651 -7.92662,1.48656 -0.45947,-0.74343 -2.03236,-5.69343 -3.49533,-11 -3.00168,-10.88788 -5.6122,-15.64832 -8.58119,-15.64832 -1.11451,0 -4.9129,2.7 -8.44087,6 -7.21752,6.75114 -8.74914,7.14324 -12.85088,3.28987 -3.65891,-3.43737 -5.89943,-2.64705 -20.30621,7.16286 -11.41842,7.77507 -18.81188,10.00814 -27.10506,8.18665 -5.94591,-1.30594 -18.54246,-13.90925 -18.54246,-18.55242 0,-1.88116 0.33945,-3.42029 0.75433,-3.42029 1.44378,0 6.28417,2.96811 12.1815,7.46963 4.74246,3.62001 7.15561,4.53037 12.00892,4.53037 11.75619,0 17.87924,-6.4875 27.84236,-29.49959 9.06625,-20.94054 13.20869,-28.44505 24.82554,-44.97429 13.0379,-18.55119 14.8472,-22.62952 14.09003,-31.7601 -0.69449,-8.37455 -6.32883,-17.56878 -18.20278,-29.70363 -6.36621,-6.50609 -8.70487,-8.06238 -12.11546,-8.06238 -6.1416,0 -7.7719,1.16044 -28.52991,20.30748 -19.92663,18.38019 -25.17221,22.34612 -29.56705,22.3542 -4.58224,0.008 -7.72842,-7.26428 -8.34879,-19.29905 -0.54892,-10.6486 0.3693,-14.83574 6.50106,-29.64508 0.97523,-2.35534 1.44514,-4.61045 1.04425,-5.01134 -0.4009,-0.40089 -5.16321,1.09967 -10.58293,3.33458 -11.32588,4.67042 -14.56155,4.64883 -16.83587,-0.11236 -2.9861,-6.25127 -4.73398,-22.97735 -4.07987,-39.04168 0.54813,-13.4614 0.33683,-15.89722 -1.43813,-16.57834 -1.14436,-0.43913 -9.74961,-0.10342 -19.12276,0.74602 -9.46045,0.85735 -18.36693,1.05435 -20.02006,0.44282 -2.28819,-0.84646 -3.29756,-2.7688 -4.35783,-8.29943 -1.93387,-10.08756 -5.17079,-10.29685 -18.93149,-1.22409 -14.77928,9.74434 -17.35486,8.54472 -17.64882,-8.22026 -0.28883,-16.47261 -4.91081,-18.53246 -14.40577,-6.42013 -10.50384,13.3993 -13.2127,16 -16.66542,16 -4.16808,0 -6.52765,-2.63699 -11.16266,-12.47505 -4.35792,-9.2499 -11.11783,-16.85828 -14.9783,-16.85828 -2.00946,0 -3.90447,2.13903 -6.93922,7.83281 -6.22362,11.6767 -10.81583,16.71686 -14.24073,15.62984 -1.5464,-0.49081 -7.46802,-6.29337 -13.15914,-12.89459 -5.69113,-6.60122 -10.7669,-11.52953 -11.27949,-10.95181 -1.13761,1.28217 -11.15652,37.96896 -13.39533,49.05041 -0.88895,4.4 -1.56138,13.7 -1.49431,20.66666 0.0671,6.96667 -0.73887,16.41322 -1.79099,20.99234 -3.24514,14.12373 -12.46085,41.13902 -23.33889,68.41646 -10.49022,26.30498 -14.879234,41.94633 -13.619465,48.53639 0.932611,4.87864 5.13118,6.2215 14.602185,4.67035 4.25404,-0.69672 12.30537,-1.27024 17.89183,-1.27449 9.41455,-0.007 11.01695,0.43097 21.91588,5.99228 19.69496,10.04958 26.53361,7.58216 28.70935,-10.3585 1.72107,-14.19162 6.55468,-14.6599 9.43415,-0.91397 3.5384,16.89155 -2.26493,27.57105 -16.59945,30.54688 -5.92378,1.22977 -11.04619,1.2173 -22.96273,-0.0559 -11.02532,-1.17799 -16.21883,-1.23749 -18.4704,-0.2116 -3.59134,1.63632 -13.24895,20.40377 -12.07454,23.46422 0.40505,1.05556 2.34613,2.24446 4.3135,2.642 11.60032,2.34407 15.32463,3.38905 16.07271,4.50978 0.9196,1.37768 10.48133,6.44562 20.74768,10.99675 3.61717,1.60351 10.38204,6.2564 15.03304,10.33975 7.96912,6.9965 8.3305,7.56334 6.27198,9.83798 -3.84656,4.2504 -43.5545,19.86928 -50.51374,19.86928 -1.57206,0 -3.92468,0.77977 -5.22805,1.73282 -2.24777,1.64361 -2.25493,2.12778 -0.13917,9.40576 1.3269,4.56436 2.9029,18.18756 3.89006,33.62619 1.62114,25.3537 1.74265,26.04006 5.26022,29.7116 4.23337,4.41869 19.83241,10.1267 33.51564,12.26407 12.05008,1.88227 55.80081,1.86399 74.66667,-0.0312 47.91777,-4.81361 76.13452,-13.61168 98.86213,-30.8255 5.24084,-3.96939 19.94084,-16.89866 32.66667,-28.73171 27.69001,-25.74741 33.01654,-30.38447 33.89418,-29.50683 0.9664,0.9664 -20.16774,24.4222 -38.90855,43.18278 -18.58073,18.60034 -31.64951,28.84766 -45.84777,35.94953 -12.65434,6.32961 -36.89816,14.53132 -50.68395,17.14644 -12.47846,2.36713 -21.5651,6.68065 -27.83786,13.21492 -5.80367,6.04563 -6.45303,12.12546 -3.58091,33.52778 5.98517,44.6001 5.71932,53.36179 -2.67574,88.18548 -2.60852,10.82044 -5.08407,22.55524 -5.50121,26.07735 -0.68641,5.79565 -0.50137,6.40383 1.94836,6.40383 1.48874,0 5.62232,-2.06901 9.18573,-4.59779 z M 405.95629,430.99997 c 0.50162,-2.01667 3.85857,-8.82373 7.45989,-15.1268 9.66265,-16.91171 13.68628,-28.37759 12.75954,-36.36001 -1.49986,-12.91894 -8.83536,-22.5283 -14.69443,-19.2494 -3.8078,2.13095 -3.84397,0.37184 -0.0842,-4.09636 7.3151,-8.6935 19.05758,-2.85581 23.963,11.91304 4.00908,12.07021 1.17432,23.05073 -11.51051,44.5862 -6.64789,11.28635 -15.13666,21.99999 -17.43133,21.99999 -0.83109,0 -1.01361,-1.44875 -0.46193,-3.66666 z M 392,415.53048 c 0,-0.99155 1.48715,-3.84155 3.30479,-6.33333 6.78576,-9.30255 6.92845,-10.12959 2.96441,-17.18145 -4.1899,-7.45365 -4.32191,-8.43921 -1.5073,-11.25382 3.06758,-3.06758 8.22815,-2.55973 11.96537,1.17748 6.91026,6.91026 2.59278,22.50523 -8.59915,31.06061 C 393.96991,417.70745 392,418.32074 392,415.53048 Z m -190.10767,-30.6796 c -11.46421,-5.20716 -17.1887,-33.22616 -10.30386,-50.43307 3.15001,-7.87267 9.40457,-10.83803 22.80886,-10.81397 9.82179,0.0176 11.46849,0.38342 14.66667,3.25805 1.98147,1.781 7.87263,6.1084 13.09147,9.61644 17.64924,11.86358 22.18541,18.84592 19.95779,30.72018 l -0.87814,4.68088 -20.39948,6.68968 c -22.96638,7.53145 -32.72606,9.10575 -38.94331,6.28181 z m 40.61851,-15.02516 c 4.66495,-3.26746 7.08071,-10.02043 5.35528,-14.97001 -1.38925,-3.9852 -9.37673,-11.46015 -15.86612,-14.84805 -1.83333,-0.95713 -3.63333,-2.16669 -4,-2.68791 -1.91793,-2.7264 -10.41312,-5.56738 -16.50657,-5.52019 -5.38919,0.0418 -7.31672,0.67115 -9.20794,3.00672 -1.5532,1.91811 -1.93624,3.40961 -1.09237,4.25348 0.84387,0.84387 0.53553,2.46563 -0.87931,4.62495 l -2.17887,3.32538 3.93253,-1.85027 c 2.16289,-1.01765 6.39846,-1.66453 9.41237,-1.43752 9.64939,0.7268 19.62636,13.05985 19.37007,23.94434 -0.0947,4.02014 0.21087,4.33333 4.22735,4.33333 2.38116,0 5.72627,-0.97841 7.43358,-2.17425 z m 46.26307,-41.93893 c -2.86096,-1.53338 -9.09059,-5.7319 -13.84361,-9.33003 -17.02408,-12.88756 -32.04732,-17.82533 -53.59697,-17.616 -9.76965,0.0949 -17.02167,0.97812 -24,2.92296 -24.83941,6.92268 -26.71459,7.29028 -28.39355,5.56612 -2.24864,-2.30919 8.04482,-11.50503 19.18566,-17.13981 17.15803,-8.67815 37.02825,-10.22004 56.03823,-4.34846 16.25791,5.02156 53.8413,32.81797 52.90613,39.129 -0.56854,3.83677 -2.33578,4.01065 -8.29589,0.81622 z m 369.10828,480.60602 c 2.44039,-6.35955 -14.47374,-23.21088 -31.85115,-31.73289 -18.41606,-9.03137 -55.7523,-15.57547 -90.69771,-15.89701 -22.2003,-0.20428 -29.37234,1.07996 -27.87163,4.99075 1.11501,2.90567 7.83268,5.16487 37.87163,12.73653 33.37094,8.41152 63.99639,17.40858 78.1086,22.94651 23.75574,9.32225 32.82906,11.15484 34.44026,6.95611 z M 415.32117,793.24008 c 14.89469,-4.6005 23.3455,-15.51549 23.3455,-30.15283 0,-13.17523 -8.25647,-27.99966 -19.15001,-34.38369 -18.81046,-11.02366 -57.56842,6.53963 -63.5636,28.80404 -1.52393,5.65944 0.53951,11.08086 8.4139,22.1064 10.30581,14.42997 30.69692,19.88292 50.95421,13.62608 z m -32.70532,-12.24014 c -4.06029,-2.04749 -5.94918,-3.84668 -5.94918,-5.66667 0,-2.37432 0.80394,-2.63872 7.33333,-2.41182 10.04901,0.34923 21.18874,-1.74798 30.01246,-5.65024 C 421.91123,763.778 428,763.02357 428,765.53809 c 0,2.52859 -10.58636,11.51664 -17.79648,15.10959 -8.85294,4.41161 -19.27386,4.54467 -27.58767,0.35226 z m 252.71748,-24.43663 c -8.59457,-7.71422 -34.48748,-25.04657 -43.75694,-29.29026 -11.7708,-5.38885 -20.25563,-6.27352 -53.57639,-5.58612 -38.08127,0.78562 -57.80292,4.20671 -75.5312,13.10233 -9.29268,4.66284 -13.13547,9.28582 -13.13547,15.80232 0,8.66623 2.02354,9.9568 14.13766,9.01669 5.79095,-0.44941 18.12077,-2.03738 27.39959,-3.52883 46.82088,-7.52583 74.49212,-6.93196 119.9633,2.57458 9.80803,2.05054 20.83279,3.76534 24.49945,3.81067 L 642,762.54711 Z m 1.8154,-52.0943 c 2.20525,-2.67535 7.73134,-12.06484 12.2802,-20.86552 4.54886,-8.80069 10.28824,-18.23449 12.75419,-20.964 7.49428,-8.29526 6.34736,-13.01499 -11.0096,-45.3062 l -9.67524,-18 7.36933,-23.33333 c 9.17953,-29.06491 10.2022,-38.01357 5.41649,-47.3957 -3.92891,-7.70242 -8.08228,-11.83705 -18.5298,-18.44624 -12.94653,-8.19007 -29.08763,-13.05783 -29.08763,-8.7721 0,0.76227 5.25,11.55836 11.66666,23.9913 L 630,547.98258 629.42183,562.3246 c -0.31799,7.88811 -0.58245,21.54202 -0.58768,30.34202 -0.009,15.39312 0.20802,16.63217 5.72556,32.66667 6.97134,20.25936 6.91325,25.99782 -0.41841,41.33333 -7.34984,15.37355 -9.59432,34.89945 -4.69081,40.80783 2.27857,2.74551 3.28013,2.3545 7.69824,-3.00544 z m -53.90552,-14.8024 c -1.66977,-9.44846 -0.86795,-22.94942 2.09762,-35.31937 4.04644,-16.87845 3.63833,-21.63764 -2.72452,-31.77226 -13.40091,-21.34469 -15.67643,-32.14562 -8.92252,-42.35146 1.9817,-2.99455 4.17682,-8.0199 4.87804,-11.16743 2.31655,-10.39816 4.0695,-37.38025 3.92333,-60.38946 -0.15051,-23.69087 -0.83797,-30.11724 -3.30976,-30.93931 -3.95906,-1.31672 -12.91127,30.97192 -15.10166,54.46834 -1.56253,16.76147 -4.31514,24.71961 -12.53397,36.23727 -9.95175,13.94611 -9.78826,15.50716 3.1664,30.23369 12.69252,14.42855 13.51057,17.31552 9.82313,34.66667 -4.62804,21.77707 0.77983,44.69068 13.92467,58.99999 4.89463,5.32824 6.07567,4.66925 4.77924,-2.66667 z M 506.51693,556.23176 c 6.88431,-4.16082 17.16687,-11.91402 22.85014,-17.22933 11.74583,-10.98537 16.74506,-19.49164 27.62387,-47.00247 3.62484,-9.16666 9.07487,-20.56666 12.11116,-25.33333 3.0363,-4.76667 6.76681,-11.23537 8.29001,-14.37491 7.52834,-15.51696 6.02867,-40.97343 -2.97863,-50.56126 -3.4636,-3.68682 -15.41191,-7.69738 -30.81817,-10.34438 -23.56667,-4.04907 -40.45446,-9.76964 -64.57109,-21.87283 -7.50334,-3.76564 -14.48915,-6.84661 -15.52401,-6.84661 -2.69527,0 -3.49952,3.00772 -3.50528,13.10905 -0.0109,19.11786 -5.7446,44.56532 -14.24336,63.21535 -3.25599,7.14509 -5.54668,13.59509 -5.09042,14.33333 1.68795,2.73116 6.09668,1.18348 13.26813,-4.65774 4.05151,-3.3 7.94767,-6 8.65813,-6 1.53707,0 2.62998,5.8046 3.08257,16.37204 l 0.33002,7.70538 12.66667,-9.10533 c 6.96666,-5.00793 13.33852,-9.51247 14.15967,-10.01007 0.82115,-0.49761 -0.54984,6.99519 -3.04665,16.65067 -5.60889,21.69029 -7.04357,33.05398 -4.17309,33.05398 1.09257,0 7.32804,-3.3913 13.85661,-7.53622 23.39664,-14.85428 28.68334,-17.89309 32.43407,-18.64324 3.41794,-0.68359 3.9615,-0.28848 5.33706,3.87949 2.94708,8.92976 -3.08326,20.39407 -21.45278,40.78398 -25.25559,28.03335 -25.63237,28.63616 -28.77649,46.03882 -0.66449,3.67792 -0.51893,3.8119 3.14912,2.89847 2.11519,-0.52673 9.47843,-4.36201 16.36274,-8.52284 z M 138,545.85258 c 9.25185,-2.22508 27.33333,-10.42337 27.33333,-12.39315 0,-4.91172 -47.60864,-3.58203 -54.08275,1.5105 -4.22715,3.32508 -4.34969,9.26547 -0.25058,12.147 3.44871,2.42434 13.64856,1.9467 27,-1.26435 z m 0.66667,-22.90865 14,-0.97238 -4.56084,-2.90962 c -2.50846,-1.6003 -10.47565,-4.84684 -17.70485,-7.21454 -12.78132,-4.18613 -13.27172,-4.24401 -17.77249,-2.09774 -5.2654,2.51089 -5.80346,4.77367 -1.96182,8.25031 1.46666,1.32732 2.66666,3.17031 2.66666,4.09554 0,2.15826 1.75043,2.70768 7.06077,2.21622 2.34991,-0.21748 10.57257,-0.83299 18.27257,-1.36779 z m 504.30357,-41.13586 c 6.68508,-1.87574 8.90936,-3.39078 15.42081,-10.50366 9.76905,-10.67139 16.77377,-22.56182 21.19078,-35.97111 4.33812,-13.16977 4.93231,-33.51933 1.26263,-43.24177 -7.87612,-20.86697 -23.83537,-24.46738 -43.17779,-9.74093 -2.38334,1.81457 -4.33334,3.74585 -4.33334,4.29174 0,0.5459 3.97213,1.31138 8.82695,1.70108 10.7618,0.86385 14.44446,3.30222 19.77586,13.09401 8.13697,14.94457 4.26188,31.29106 -11.49402,48.48585 -10.83598,11.82556 -14.29857,13.2393 -34.44212,14.06236 -15.90476,0.64986 -16.68572,0.81487 -17.08338,3.60959 -0.57377,4.03241 7.07192,12.04055 13.75005,14.40187 7.22864,2.55598 20.82265,2.47118 30.30357,-0.18903 z M 429.84813,450.96634 c 4.75066,-9.37497 9.41843,-25.56648 7.82873,-27.15618 -1.73316,-1.73316 -5.83703,5.28155 -10.2546,17.5281 -5.54689,15.37727 -3.86669,22.04584 2.42587,9.62808 z m 170.74606,-13.96637 c 5.11128,-11.49219 5.53937,-23.30004 0.73713,-20.33209 -3.93619,2.4327 -9.6081,22.31485 -7.38983,25.90409 1.75554,2.84051 3.59717,1.29804 6.6527,-5.572 z m 36.226,0.0313 c 15.1638,-11.7033 17.1034,-33.03131 3.00391,-33.03131 -7.71078,0 -18.49077,16.29743 -18.49077,27.95478 0,7.91397 8.28965,10.63129 15.48686,5.07653 z M 594.66667,399.3529 c 0,-1.08922 -2.95038,-7.60346 -6.55639,-14.47609 -4.02323,-7.66779 -6.87112,-15.01631 -7.37097,-19.0196 -2.01597,-16.14585 -8.43639,-28.84897 -23.00249,-45.5116 -14.36124,-16.4283 -37.62563,-32.3224 -57.13583,-39.03489 -14.55816,-5.00874 -14.48919,-1.91561 0.63966,28.68926 16.16204,32.69492 23.51499,41.22413 54.48057,63.19576 9.31999,6.61301 21.02413,15.64928 26.00918,20.08061 9.01616,8.01466 12.93627,9.85605 12.93627,6.07655 z m 17.88559,-14.35293 c 3.658,-5.63615 5.41404,-21.04825 5.43109,-47.66666 0.0189,-29.48536 -1.99707,-42.61662 -8.802,-57.33333 -4.53439,-9.80632 -8.98509,-15.0429 -14.85011,-17.47227 -3.50187,-1.45052 -4.24578,-1.36019 -5.751,0.69831 -2.64258,3.61395 -3.82243,17.5793 -3.83903,45.44062 -0.0145,24.31698 0.1371,25.78802 3.77816,36.66667 4.85025,14.49145 14.69656,36.92363 17.62982,40.16485 2.93118,3.23891 4.03326,3.15317 6.40307,-0.49819 z m -75.21893,-8.26317 c 0,-0.32807 -3.01166,-2.10917 -6.69257,-3.95799 -14.89459,-7.48112 -28.177,-22.35468 -37.43516,-41.91963 -11.3838,-24.05701 -16.76663,-27.05296 -39.87307,-22.19237 -17.00068,3.57621 -18.44991,6.40741 -8.33253,16.27843 20.49485,19.9958 56.15441,42.89145 77.66667,49.86682 6.89231,2.23484 14.66666,3.25509 14.66666,1.92474 z M 375.50787,364.20319 c 2.88272,-2.08823 10.22289,-9.62079 16.31148,-16.73902 11.72774,-13.71101 19.83194,-20.52409 25.84732,-21.72946 4.97271,-0.99644 4.60971,-3.30434 -1.33334,-8.47709 -7.47208,-6.5036 -9.77993,-10.53791 -8.86055,-15.48898 0.70975,-3.82216 0.22525,-4.64056 -5.01019,-8.46312 -8.09684,-5.91175 -33.20061,-17.84363 -45.00561,-21.39128 -9.33334,-2.80486 -9.96971,-2.84037 -11.57431,-0.64596 -3.89443,5.32595 -3.97159,36.77404 -0.10959,44.66094 2.23263,4.55941 5.15667,3.87735 14.44765,-3.37005 4.15473,-3.24089 8.1582,-5.89253 8.8966,-5.89253 2.43896,0 4.82705,9.85002 4.68729,19.33334 -0.0831,5.63894 -1.23993,12.5582 -2.92254,17.48049 -4.31054,12.61001 -5.55539,19.34906 -4.08255,22.10109 1.71953,3.21298 2.55207,3.08121 8.70834,-1.37837 z m 264.9013,-2.58535 c 4.2493,-4.69543 6.30935,-12.53585 7.65818,-29.14661 0.86583,-10.66259 2.38001,-19.62307 4.11302,-24.33978 4.17,-11.34936 4.54545,-16.68869 1.48163,-21.07047 -3.94188,-5.63754 -4.65079,-10.61363 -2.90432,-20.3863 1.90803,-10.67671 -0.36118,-24.33446 -6.20766,-37.36216 -3.65523,-8.14492 -6.21508,-10.64587 -10.89661,-10.64587 -8.53533,0 -20.43724,-28.34608 -22.3916,-53.32873 -0.66818,-8.54143 -1.65149,-13.0137 -3.31221,-15.0646 -2.26936,-2.80255 -2.46413,-2.82431 -4.97107,-0.55556 -1.43504,1.29869 -3.6834,4.74348 -4.99635,7.65508 -1.31295,2.9116 -3.07835,5.29381 -3.92312,5.29381 -2.5458,0 -9.77363,-8.31073 -12.17577,-13.99999 -1.23853,-2.93334 -3.02896,-11.22765 -3.97875,-18.4318 -0.94978,-7.20416 -2.68069,-14.55416 -3.84645,-16.33333 -2.90752,-4.43744 -7.01172,-4.12011 -9.78677,0.7567 -1.24923,2.19536 -3.17132,3.99234 -4.27132,3.99328 -2.35884,0.002 -10.24111,-6.13046 -25.993,-20.222803 -14.71141,-13.161493 -23.87516,-19.185978 -35.03221,-23.031074 -4.93613,-1.70116 -13.45786,-5.261558 -18.93717,-7.911995 -9.89558,-4.786662 -10.0799,-4.818976 -27.48686,-4.818976 -15.23493,0 -17.94777,-0.33297 -20.76449,-2.548602 -1.78201,-1.401731 -6.77313,-3.20173 -11.09136,-3.999999 -9.02489,-1.668342 -77.88193,-2.007392 -75.96158,-0.374034 0.69667,0.592551 7.58871,3.917982 15.31565,7.389848 7.72694,3.471865 15.82694,7.81948 18,9.661366 L 382,76.144125 374.33495,75.309654 c -12.31782,-1.341006 -31.57457,-6.950209 -41.92908,-12.213311 -8.04143,-4.087391 -9.92954,-4.598239 -11.66666,-3.156551 -3.28012,2.722258 -2.51815,4.611808 4.51116,11.186909 12.91261,12.078236 44.26319,30.206629 52.23823,30.206629 16.62526,0 55.93062,22.84809 84.86764,49.33333 20.36457,18.63911 31.73517,27.36172 42.29227,32.44323 16.32853,7.85951 36.35952,26.00245 50.45429,45.69864 2.67974,3.74469 7.49567,12.32912 10.70208,19.0765 l 5.82983,12.26797 0.79477,-5.07651 c 0.43713,-2.79208 1.20217,-9.12651 1.70011,-14.07651 0.49793,-4.95 1.2145,-9 1.59236,-9 0.37787,0 7.72817,5.6957 16.33401,12.65712 22.43431,18.14752 33.06027,32.80401 40.14796,55.37651 2.90197,9.242 3.10975,11.92875 2.85893,36.96636 -0.2834,28.28997 0.16298,30.34539 5.34632,24.61787 z m -72.70373,-153.8384 c -1.79794,-2.44537 -4.79403,-7.14612 -6.65797,-10.44612 -10.70481,-18.95226 -16.48488,-52 -9.09482,-52 3.50818,0 5.54452,6.08254 6.79031,20.28256 1.80485,20.57255 5.41117,25.05077 20.17347,25.05077 7.53136,0 9.21424,0.41948 10.3736,2.58575 1.69115,3.15995 -0.0504,4.53687 -5.89562,4.6612 -3.43337,0.073 -4.52239,1.0011 -7.04567,6.00431 -4.31749,8.56081 -4.97288,8.85362 -8.6433,3.86153 z m -57.52106,-36.11279 c -4.38725,-6.38871 -7.38145,-13.51286 -9.38646,-22.33333 -0.41674,-1.83333 -3.46948,-6.92517 -6.78386,-11.31518 -6.2241,-8.24404 -6.90928,-11.00497 -2.5424,-10.24454 7.62376,1.32758 20.61462,21.87773 25.21971,39.89488 3.33998,13.06749 0.79495,14.63127 -6.50699,3.99817 z m -14.93457,-65.33332 c -6.58159,-7.8054 -8.6325,-15.66667 -4.08724,-15.66667 3.62905,0 12.83743,12.86404 12.83743,17.93379 0,3.54541 -4.92496,2.26938 -8.75019,-2.26712 z m -48.2937,-4.32809 c -9.03548,-6.792091 -18.08239,-11.266118 -22.86848,-11.309298 -8.49839,-0.07667 -21.42096,-10.210511 -21.42096,-16.798248 0,-3.292554 1.83451,-4.322836 3.34511,-1.878646 1.89306,3.063034 11.99025,6.797153 21.66957,8.013789 13.01307,1.63567 18.77477,5.474338 25.82982,17.208853 2.83552,4.71627 5.1555,9.06627 5.1555,9.66667 0,2.49745 -4.2112,0.73425 -11.71056,-4.90312 z m 115.34453,190.25242 c -1.54472,-23.84297 -7.28104,-37.96286 -24.93952,-61.38832 -13.23505,-17.55741 -26.84067,-31.2935 -30.33055,-30.62141 -5.65565,1.08917 -7.39526,15.0991 -3.70092,29.80525 2.81975,11.22466 12.88905,30.71841 20.16162,39.03205 3.39223,3.87783 10.50915,10.26126 15.81538,14.1854 5.30623,3.92414 12.22688,10.19357 15.37923,13.93207 3.15236,3.7385 6.32644,6.79728 7.05353,6.79728 0.83127,0 1.03959,-4.35871 0.56123,-11.74232 z m -108.9516,-2.24097 c -1.71369,-1.82414 -7.66828,-6.43522 -13.23242,-10.24684 -16.88447,-11.56644 -25.55025,-18.49101 -38.4014,-30.68542 -16.6017,-15.75329 -23.14134,-19.09211 -37.04855,-18.91518 -8.37817,0.10658 -12.91573,0.98864 -21.14954,4.11127 l -10.48288,3.97557 13.14954,10.39982 c 7.23225,5.71991 16.9085,12.09121 21.50278,14.15845 4.59428,2.06724 10.59428,5.55365 13.33334,7.74757 6.09968,4.88573 19.09704,10.85516 31.93516,14.66721 13.45301,3.99462 32.0652,7.88695 38.27735,8.00486 l 5.23242,0.0993 z m 15.98429,-5.51556 c 0,-1.19104 -2.14089,-6.90713 -4.75754,-12.70243 -2.61665,-5.7953 -4.56152,-11.57081 -4.32193,-12.83448 0.67641,-3.56763 6.43583,-3.47259 20.41939,0.33695 7.00867,1.90938 13.32437,3.1123 14.03489,2.67318 1.92299,-1.18848 1.56163,-9.58511 -0.59171,-13.74922 -4.15268,-8.0304 -19.8161,-20.39915 -44.11118,-34.83276 -26.51502,-15.75247 -41.15261,-20.04622 -77.33858,-22.68631 -10.26667,-0.74904 -20.13409,-1.36434 -21.92761,-1.36732 -2.2296,-0.004 1.54964,2.73952 11.94928,8.67361 15.12263,8.62905 23.97833,15.6089 23.97833,18.89913 0,0.94694 2.25,3.1587 5,4.915 6.40695,4.09185 16.34983,12.86184 40.02359,35.30231 19.30235,18.29679 32.95213,29.49841 35.97641,29.52384 0.91666,0.008 1.66666,-0.96047 1.66666,-2.1515 z m -128,-22.32179 c 0,-0.97952 -19.73934,-16.78217 -24.3915,-19.52701 -5.97174,-3.52341 -8.38262,-2.46351 -14.12865,6.21141 -4.91637,7.42236 -5.22685,10.78793 -1.14651,12.42802 2.8045,1.12728 39.66666,1.9521 39.66666,0.88758 z M 276.90754,247.8288 C 285.13816,245.18074 296,238.46596 296,236.02586 c 0,-3.01618 -20.67064,-9.35921 -30.49977,-9.35921 -5.95477,0 -9.50023,5.25632 -9.50023,14.08457 0,12.04626 2.66255,12.94758 20.90754,7.07758 z M 178.9541,230.56671 c 1.99142,-7.64503 4.60914,-16.49744 5.81715,-19.67201 l 2.19639,-5.77195 3.96903,3.77195 c 2.18297,2.07457 9.04793,10.55332 15.25547,18.84166 6.20754,8.28834 12.23531,15.43383 13.39504,15.87886 1.15974,0.44504 3.07706,0.20611 4.26072,-0.53094 3.50058,-2.17978 9.39452,-11.40945 10.3228,-16.16509 0.78986,-4.0465 0.26341,-4.99037 -6.32121,-11.33333 -8.05625,-7.76058 -20.57868,-14.53533 -32.46021,-17.56128 -9.57505,-2.43854 -32.04844,-4.68862 -46.84438,-4.69015 l -10.78843,-0.001 -4.37553,14.25037 c -7.37965,24.03426 -5.73498,28.07822 6.77529,16.65925 14.83812,-13.54374 21.1771,-15.95583 21.1771,-8.05824 0,8.43126 9.28987,29.81707 12.49818,28.77151 0.826,-0.26919 3.13117,-6.74446 5.12259,-14.3895 z m 151.71257,-11.7383 c 0,-0.64436 -1.95,-1.94376 -4.33334,-2.88755 -2.38333,-0.94379 -16.33333,-7.23997 -31,-13.99151 -30.94122,-14.24325 -35.44228,-15.86091 -41.02524,-14.74432 -5.10039,1.02008 -16.59939,8.26888 -18.37233,11.58165 -1.07233,2.00367 -0.63568,2.79772 2.37518,4.31925 8.61455,4.35333 31.35913,10.63902 51.68906,14.2848 13.97332,2.50584 40.66667,3.44953 40.66667,1.43768 z m 148.39434,-11.26622 c 1.05499,-2.74925 -4.08415,-16.56582 -9.80556,-26.36222 -12.59112,-21.55898 -28.69241,-39.426 -44.66439,-49.56245 -4.35841,-2.76603 -10.83197,-7.1092 -14.38567,-9.65148 -6.43752,-4.60534 -16.18655,-8.44933 -17.66906,-6.96682 -1.30688,1.30687 0.53798,5.37811 6.6625,14.70286 3.21772,4.89908 7.49601,13.56577 9.50731,19.25933 5.42859,15.36714 9.10881,23.18217 13.18818,28.0054 4.46026,5.27357 21.07809,16.40503 38.10568,25.52512 12.8959,6.90713 17.84525,8.21847 19.06101,5.05026 z m -137.97616,-5.89554 c -0.53876,-2.83123 -12.25315,-10.90032 -17.28594,-11.90688 -3.60745,-0.72149 -5.79589,-3.60729 -4.42173,-5.83074 1.30309,-2.10843 10.46852,-3.91389 19.95615,-3.93109 15.64636,-0.0283 27.49812,-1.5426 28.29334,-3.61491 2.00092,-5.21431 -15.30687,-15.82045 -38.29334,-23.46598 -26.11137,-8.68491 -43.84158,-12.0399 -64.21493,-12.15103 -10.01822,-0.0547 -18.64898,0.3314 -19.17947,0.85788 -2.15541,2.13913 2.96272,9.53177 13.89616,20.07163 22.74956,21.93064 45.26817,34.78424 71.49824,40.81114 8.42966,1.93689 10.2501,1.78007 9.75152,-0.84002 z m -123.12724,-23.01245 9.29095,-2.94109 -13.74912,-6.49132 c -7.56201,-3.57022 -17.44294,-9.05493 -21.95761,-12.18824 -7.1123,-4.93613 -9.09879,-5.68123 -14.87516,-5.57947 -3.66667,0.0646 -11.46667,1.79108 -17.33334,3.83662 -12.95626,4.51748 -34.61512,14.46851 -35.85385,16.47282 -1.21246,1.96179 4.85944,4.92321 13.92316,6.79068 14.14428,2.91426 28.71791,3.93232 49.93069,3.48796 17.43644,-0.36525 23.03049,-0.98412 30.62428,-3.38796 z m 186.17806,-4.98755 c 2.20242,-5.75589 -0.64455,-12.62416 -8.95248,-21.59771 -4.06591,-4.39166 -7.04837,-8.54173 -6.62771,-9.22238 1.48408,-2.4013 -11.05357,-17.2153 -22.67826,-26.79574 -19.9282,-16.423763 -48.74122,-34.717493 -54.68079,-34.717493 -3.62819,0 -1.36164,10.602032 5.25074,24.560893 7.88502,16.64543 17.37451,26.5272 37.78193,39.34378 27.5174,17.28188 37.83733,24.41538 40.84498,28.23345 3.78501,4.8049 7.26903,4.87996 9.06159,0.1952 z M 237.33333,161.29502 c 0,-0.7544 -6.3,-7.44943 -14,-14.87785 -7.7,-7.42843 -14,-14.24615 -14,-15.15049 0,-2.55737 5.84859,-3.59201 25.33334,-4.48158 l 18,-0.82178 -9.33334,-4.41767 c -45.77842,-21.667926 -67.02234,-26.32595 -94.85738,-20.7988 -15.14968,3.00824 -14.97932,2.87802 -9.04645,6.91549 25.20062,17.14966 75.48743,48.0849 85.23717,52.43587 5.95864,2.65913 12.66666,3.29294 12.66666,1.19681 z m 73,-35.46874 c 1.65,-0.44219 3,-1.83113 3,-3.08654 0,-7.03188 -23.27305,-32.274069 -40.1774,-43.576825 -10.43568,-6.977605 -28.4565,-14.973458 -30.08238,-13.347577 -1.87287,1.872865 17.32805,35.706082 27.73712,48.874542 8.09595,10.24215 11.73547,11.96928 25.18933,11.95359 6.23333,-0.007 12.68333,-0.37501 14.33333,-0.81719 z m -60.29621,-17.88635 c 1.20862,-1.95558 -8.50368,-14.144306 -19.88563,-24.956048 -11.76936,-11.179736 -24.66186,-20.505687 -34.70234,-25.102371 -17.22593,-7.886291 -14.53727,2.879974 5.21752,20.892588 13.62808,12.426229 30.49344,24.068671 40.66666,28.072881 7.18168,2.82672 7.59981,2.87923 8.70379,1.09295 z"
       id="path1" />
  </g>
</svg>
